<svg xmlns="http://www.w3.org/2000/svg" viewBox="0 0 960 205.65"><defs><style>.cls-1{fill:#aa832d;}</style></defs><g id="Layer_2" data-name="Layer 2"><g id="Layer_1-2" data-name="Layer 1"><path class="cls-1" d="M192.56,113.11A90.52,90.52,0,0,1,110,193.18l-1.47.13V145.7l1.13-.19a43.26,43.26,0,0,0,34.7-31.8l.53-2.08H132.35l-.38,1.14a31.14,31.14,0,1,1,0-19.88l.38,1.13h12.56l-.53-2.08a43.26,43.26,0,0,0-34.7-31.8L108.55,60V12.35l1.47.12a90.31,90.31,0,0,1,56.56,26.24,90.28,90.28,0,0,1,26,53.83l.16,1.48h12.22l-.19-1.83a102.85,102.85,0,0,0-204.56,0L0,94H12.21l.16-1.48A90.59,90.59,0,0,1,94.91,12.47l1.48-.12V60l-1.14.19a43.29,43.29,0,0,0,0,85.37l1.14.19v47.61l-1.48-.13a90.59,90.59,0,0,1-82.54-80.07l-.16-1.48H0l.19,1.84a102.85,102.85,0,0,0,204.56,0l.19-1.84H192.72Z"/><path class="cls-1" d="M434.62,53.28l-32.25,96.46H387.9l-26.32-77-26.32,77H320.52L288.27,53.28h14.2l26,78.4,27.15-78.4h12.68l26.59,78.82,26.6-78.82Z"/><path class="cls-1" d="M532.44,137.75v12h-70V53.28h68.07v12H476.22V94.89h48.37V106.6H476.22v31.15Z"/><path class="cls-1" d="M557.51,101.51c0-28.53,21.77-49.34,51.13-49.34,14.88,0,27.83,5.1,36.65,15l-8.95,8.68C628.89,68,619.8,64.44,609.19,64.44c-21.77,0-37.9,15.71-37.9,37.07s16.13,37.06,37.9,37.06A35.9,35.9,0,0,0,636.34,127l8.95,8.68c-8.82,9.92-21.77,15.16-36.79,15.16C579.28,150.84,557.51,130,557.51,101.51Z"/><path class="cls-1" d="M740.5,149.74l-20.8-29.63c-1.93.14-4,.27-6.07.27H689.79v29.36H676V53.28h37.62c25.08,0,40.24,12.67,40.24,33.62,0,14.88-7.72,25.63-21.22,30.45l22.87,32.39Zm-.41-62.84c0-13.78-9.23-21.64-26.87-21.64H689.79v43.41h23.43C730.86,108.67,740.09,100.68,740.09,86.9Z"/><path class="cls-1" d="M848.67,125.62H797.4l-10.61,24.12H772.6l43.68-96.46h13.65l43.82,96.46H859.28Zm-4.83-11L823,67.33,802.23,114.6Z"/><path class="cls-1" d="M913.29,65.26H880.21v-12H960v12H926.93v84.48H913.29Z"/></g></g></svg>